<?xml version="1.0" standalone="no"?>
<!DOCTYPE svg PUBLIC "-//W3C//DTD SVG 20010904//EN"
 "http://www.w3.org/TR/2001/REC-SVG-20010904/DTD/svg10.dtd">
<svg version="1.0" xmlns="http://www.w3.org/2000/svg"
 width="50.000000pt" height="50.000000pt" viewBox="0 0 50.000000 50.000000"
 preserveAspectRatio="xMidYMid meet">

<g transform="translate(0.000000,50.000000) scale(0.100000,-0.100000)"
fill="#000000" stroke="none">
<path d="M255 322 c-21 -59 -48 -135 -61 -169 -22 -60 -22 -63 -5 -73 17 -8
23 2 56 98 21 59 48 135 61 169 22 60 22 63 5 73 -17 8 -23 -2 -56 -98z"/>
<path d="M52 311 c-23 -27 -42 -55 -42 -61 0 -12 79 -110 89 -110 3 0 12 4 20
9 11 7 7 18 -22 52 -21 23 -37 45 -37 49 0 4 16 25 34 47 26 30 32 43 23 52
-17 17 -21 15 -65 -38z"/>
<path d="M383 349 c-9 -9 -3 -22 23 -52 18 -22 34 -43 34 -47 0 -4 -16 -25
-35 -47 -31 -36 -33 -42 -19 -54 14 -11 22 -6 60 36 24 28 43 56 44 63 0 14
-78 112 -90 112 -3 0 -11 -5 -17 -11z"/>
</g>
</svg>
