<svg version="1.1" id="Layer_1" xmlns="http://www.w3.org/2000/svg" xmlns:xlink="http://www.w3.org/1999/xlink" x="0px" y="0px"
	 width="100%" viewBox="0 0 449 379" enable-background="new 0 0 449 379" xml:space="preserve">
<path fill="#232923" opacity="1.000000" stroke="none" 
	d="
M1.000000,72.000000 
	C1.000000,48.382267 1.000000,24.764532 1.000000,1.000000 
	C47.687462,1.000000 94.375076,1.000000 141.536194,1.370657 
	C148.012115,11.662767 153.952255,21.622570 160.030212,31.497538 
	C171.954330,50.870872 183.968140,70.188980 195.920258,89.545113 
	C205.656906,105.313385 215.357727,121.103783 225.288422,137.231873 
	C233.451126,123.976891 241.358871,111.137604 249.264954,98.297295 
	C260.513397,80.028587 271.776031,61.768604 283.003387,43.486950 
	C291.692139,29.338903 300.336121,15.163337 309.000000,1.000000 
	C355.354218,1.000000 401.708466,1.000000 448.533661,1.468652 
	C449.004639,37.195206 449.004639,72.453110 449.004639,108.131775 
	C442.735046,108.131775 436.986176,108.131775 430.131775,108.131775 
	C430.131775,164.278336 430.131775,220.006042 430.131775,276.171936 
	C435.648285,276.171936 441.722046,276.171936 448.000000,276.171936 
	C448.000000,311.066650 448.000000,345.533325 448.000000,380.000000 
	C397.312439,380.000000 346.624878,380.000000 295.466339,379.531342 
	C294.995361,333.578552 294.995361,288.094391 294.995361,242.503860 
	C295.462555,242.582764 295.195770,242.484070 295.159058,242.539047 
	C277.115356,269.558746 258.453400,296.198120 241.415024,323.838318 
	C235.727493,333.064850 229.418335,334.991638 220.104614,334.132812 
	C217.554825,333.897705 216.035309,333.272614 214.642197,331.181000 
	C201.475235,311.412323 188.216461,291.704803 174.993515,271.973389 
	C168.158142,261.773560 161.341675,251.561035 153.787048,240.263092 
	C154.283325,245.394791 154.949692,249.125809 154.957733,252.858246 
	C155.036331,289.338898 154.960953,325.819885 155.049622,362.300446 
	C155.063965,368.201050 155.668350,374.100189 156.000000,380.000000 
	C105.312439,380.000000 54.624878,380.000000 3.466342,379.531342 
	C2.995369,344.820648 2.995369,310.578613 2.995369,275.914490 
	C9.208188,275.914490 14.950542,275.914490 20.188702,275.914490 
	C20.188702,219.731628 20.188702,163.973602 20.188702,107.796082 
	C13.649713,107.796082 7.912901,107.796082 1.994896,107.796082 
	C1.994896,97.066536 2.034620,86.760162 1.950608,76.454788 
	C1.938482,74.967377 1.331632,73.484810 1.000000,72.000000 
M258.081238,274.557983 
	C274.841461,249.351349 291.601685,224.144730 308.644653,198.512863 
	C308.644653,255.206070 308.644653,311.052246 308.644653,366.636963 
	C350.635864,366.636963 392.541077,366.636963 434.721313,366.636963 
	C434.721313,340.518799 434.721313,314.763489 434.721313,288.461853 
	C428.422760,288.461853 422.355560,288.461853 416.187714,288.461853 
	C416.696106,223.852997 417.200226,159.792023 417.707672,95.304489 
	C424.066925,95.304489 429.825256,95.304489 435.929077,95.304489 
	C435.929077,67.991554 435.929077,41.110790 435.929077,14.282681 
	C435.397552,14.123078 435.092102,13.951162 434.786530,13.950966 
	C396.455566,13.926248 358.124420,13.874369 319.794220,14.037585 
	C318.150513,14.044584 315.932861,15.671379 314.970093,17.175634 
	C308.429230,27.394987 302.164276,37.790691 295.790771,48.117428 
	C272.394318,86.025688 248.990341,123.929276 225.365311,162.197281 
	C224.300613,160.582886 223.365891,159.244171 222.510208,157.856705 
	C193.885254,111.442253 165.225861,65.048897 136.732437,18.553827 
	C134.551712,14.995366 132.267776,13.767479 128.084488,13.789848 
	C91.920715,13.983218 55.755470,13.901152 19.590662,13.901153 
	C17.823679,13.901154 16.056698,13.901154 14.714691,13.901154 
	C14.714691,41.334953 14.714691,68.204071 14.714691,95.552231 
	C21.180178,95.552231 26.938028,95.552231 33.477509,95.552231 
	C33.477509,160.104080 33.477509,224.172226 33.477509,288.786499 
	C27.815109,288.786499 21.912556,288.786499 16.017399,288.786499 
	C16.017399,315.081085 16.017399,340.830505 16.017399,366.726746 
	C58.227039,366.726746 100.127808,366.726746 141.694946,366.726746 
	C141.694946,310.591553 141.694946,254.730225 141.694946,198.322006 
	C142.926331,200.042358 143.983612,201.434387 144.952454,202.885468 
	C170.539429,241.208374 196.112167,279.540802 221.703262,317.860901 
	C224.808289,322.510376 225.996750,322.503601 229.099869,317.877838 
	C238.644562,303.649750 248.165771,289.405914 258.081238,274.557983 
z"/>
<path fill="#FFFFFF" opacity="1.000000" stroke="none" 
	d="
M156.468658,380.000000 
	C155.668350,374.100189 155.063965,368.201050 155.049622,362.300446 
	C154.960953,325.819885 155.036331,289.338898 154.957733,252.858246 
	C154.949692,249.125809 154.283325,245.394791 153.787048,240.263092 
	C161.341675,251.561035 168.158142,261.773560 174.993515,271.973389 
	C188.216461,291.704803 201.475235,311.412323 214.642197,331.181000 
	C216.035309,333.272614 217.554825,333.897705 220.104614,334.132812 
	C229.418335,334.991638 235.727493,333.064850 241.415024,323.838318 
	C258.453400,296.198120 277.115356,269.558746 295.159058,242.539047 
	C295.195770,242.484070 295.462555,242.582764 294.995361,242.503860 
	C294.995361,288.094391 294.995361,333.578552 294.997681,379.531342 
	C248.979111,380.000000 202.958206,380.000000 156.468658,380.000000 
z"/>
<path fill="#FFFFFF" opacity="1.000000" stroke="none" 
	d="
M308.531342,1.000000 
	C300.336121,15.163337 291.692139,29.338903 283.003387,43.486950 
	C271.776031,61.768604 260.513397,80.028587 249.264954,98.297295 
	C241.358871,111.137604 233.451126,123.976891 225.288422,137.231873 
	C215.357727,121.103783 205.656906,105.313385 195.920258,89.545113 
	C183.968140,70.188980 171.954330,50.870872 160.030212,31.497538 
	C153.952255,21.622570 148.012115,11.662767 142.004852,1.370657 
	C197.354233,1.000000 252.708450,1.000000 308.531342,1.000000 
z"/>
<path fill="#FFFFFF" opacity="1.000000" stroke="none" 
	d="
M448.500000,380.000000 
	C448.000000,345.533325 448.000000,311.066650 448.000000,276.171936 
	C441.722046,276.171936 435.648285,276.171936 430.131775,276.171936 
	C430.131775,220.006042 430.131775,164.278336 430.131775,108.131775 
	C436.986176,108.131775 442.735046,108.131775 449.004639,108.131775 
	C449.004639,72.453110 449.004639,37.195206 449.002319,1.468652 
	C449.333344,2.333332 449.957336,3.666459 449.958282,5.000029 
	C450.005798,71.833328 450.000000,138.666672 450.000000,205.500000 
	C450.000000,262.333344 450.006805,319.166656 449.958191,375.999969 
	C449.957062,377.333588 449.333344,378.666687 448.500000,380.000000 
z"/>
<path fill="#FFFFFF" opacity="1.000000" stroke="none" 
	d="
M1.000000,72.468658 
	C1.331632,73.484810 1.938482,74.967377 1.950608,76.454788 
	C2.034620,86.760162 1.994896,97.066536 1.994896,107.796082 
	C7.912901,107.796082 13.649713,107.796082 20.188702,107.796082 
	C20.188702,163.973602 20.188702,219.731628 20.188702,275.914490 
	C14.950542,275.914490 9.208188,275.914490 2.995369,275.914490 
	C2.995369,310.578613 2.995369,344.820648 2.997686,379.531342 
	C2.333337,379.668060 1.216181,379.454987 1.090956,378.980255 
	C0.803659,377.891022 1.000000,376.674194 1.000000,375.509186 
	C1.000000,274.651886 1.000000,173.794601 1.000000,72.468658 
z"/>
<path fill="#FDFDFC" opacity="1.000000" stroke="none" 
	d="
M257.888672,274.863098 
	C248.165771,289.405914 238.644562,303.649750 229.099869,317.877838 
	C225.996750,322.503601 224.808289,322.510376 221.703262,317.860901 
	C196.112167,279.540802 170.539429,241.208374 144.952454,202.885468 
	C143.983612,201.434387 142.926331,200.042358 141.694946,198.322006 
	C141.694946,254.730225 141.694946,310.591553 141.694946,366.726746 
	C100.127808,366.726746 58.227039,366.726746 16.017399,366.726746 
	C16.017399,340.830505 16.017399,315.081085 16.017399,288.786499 
	C21.912556,288.786499 27.815109,288.786499 33.477509,288.786499 
	C33.477509,224.172226 33.477509,160.104080 33.477509,95.552231 
	C26.938028,95.552231 21.180178,95.552231 14.714691,95.552231 
	C14.714691,68.204071 14.714691,41.334953 14.714691,13.901154 
	C16.056698,13.901154 17.823679,13.901154 19.590662,13.901153 
	C55.755470,13.901152 91.920715,13.983218 128.084488,13.789848 
	C132.267776,13.767479 134.551712,14.995366 136.732437,18.553827 
	C165.225861,65.048897 193.885254,111.442253 222.510208,157.856705 
	C223.365891,159.244171 224.300613,160.582886 225.365311,162.197281 
	C248.990341,123.929276 272.394318,86.025688 295.790771,48.117428 
	C302.164276,37.790691 308.429230,27.394987 314.970093,17.175634 
	C315.932861,15.671379 318.150513,14.044584 319.794220,14.037585 
	C358.124420,13.874369 396.455566,13.926248 434.786530,13.950966 
	C435.092102,13.951162 435.397552,14.123078 435.929077,14.282681 
	C435.929077,41.110790 435.929077,67.991554 435.929077,95.304489 
	C429.825256,95.304489 424.066925,95.304489 417.707672,95.304489 
	C417.200226,159.792023 416.696106,223.852997 416.187714,288.461853 
	C422.355560,288.461853 428.422760,288.461853 434.721313,288.461853 
	C434.721313,314.763489 434.721313,340.518799 434.721313,366.636963 
	C392.541077,366.636963 350.635864,366.636963 308.644653,366.636963 
	C308.644653,311.052246 308.644653,255.206070 308.644653,198.512863 
	C291.601685,224.144730 274.841461,249.351349 257.888672,274.863098 
M323.333038,279.505066 
	C323.333038,303.617188 323.333038,327.729279 323.333038,351.948975 
	C355.551239,351.948975 387.599701,351.948975 419.897217,351.948975 
	C419.897217,335.595123 419.897217,319.542603 419.897217,302.945007 
	C413.649933,302.945007 407.737823,302.945007 401.509979,302.945007 
	C402.051636,228.659851 402.589294,154.923401 403.130188,80.746376 
	C409.317230,80.746376 415.073273,80.746376 421.241760,80.746376 
	C421.241760,63.100292 421.241760,45.898109 421.241760,28.580862 
	C420.042725,28.477158 419.228424,28.345453 418.414062,28.345142 
	C388.417267,28.333664 358.419952,28.266798 328.424896,28.493595 
	C326.533386,28.507896 323.966156,30.393410 322.880188,32.135700 
	C304.135254,62.209034 285.574310,92.397041 266.971893,122.559189 
	C253.184982,144.913391 239.396332,167.266495 225.361465,190.020538 
	C224.249008,188.326797 223.317551,186.982300 222.459946,185.592239 
	C191.010269,134.616974 159.533920,83.658073 128.201920,32.610569 
	C126.193527,29.338400 124.070534,28.217146 120.268013,28.239817 
	C91.605423,28.410700 62.941349,28.333055 34.277740,28.333061 
	C32.657295,28.333063 31.036854,28.333061 29.408825,28.333061 
	C29.408825,46.096970 29.408825,63.317188 29.408825,81.027405 
	C35.556797,81.027405 41.307480,81.027405 47.383446,81.027405 
	C47.968178,155.237701 48.549034,228.956406 49.134315,303.236389 
	C42.590958,303.236389 36.529385,303.236389 30.625246,303.236389 
	C30.625246,319.842773 30.625246,335.886017 30.625246,351.861328 
	C63.184471,351.861328 95.242287,351.861328 127.678383,351.861328 
	C127.149330,283.886383 126.623299,216.300018 126.089912,147.768021 
	C159.439072,198.246948 192.129044,247.728104 225.273727,297.897522 
	C258.429871,247.711304 290.949158,198.489014 323.333099,149.471619 
	C323.333099,192.444214 323.333099,235.476089 323.333038,279.505066 
z"/>
<path fill="#8C2334" opacity="1.000000" stroke="none" 
	d="
M323.333069,279.006531 
	C323.333099,235.476089 323.333099,192.444214 323.333099,149.471619 
	C290.949158,198.489014 258.429871,247.711304 225.273727,297.897522 
	C192.129044,247.728104 159.439072,198.246948 126.089912,147.768021 
	C126.623299,216.300018 127.149330,283.886383 127.678383,351.861328 
	C95.242287,351.861328 63.184471,351.861328 30.625246,351.861328 
	C30.625246,335.886017 30.625246,319.842773 30.625246,303.236389 
	C36.529385,303.236389 42.590958,303.236389 49.134315,303.236389 
	C48.549034,228.956406 47.968178,155.237701 47.383446,81.027405 
	C41.307480,81.027405 35.556797,81.027405 29.408825,81.027405 
	C29.408825,63.317188 29.408825,46.096970 29.408825,28.333061 
	C31.036854,28.333061 32.657295,28.333063 34.277740,28.333061 
	C62.941349,28.333055 91.605423,28.410700 120.268013,28.239817 
	C124.070534,28.217146 126.193527,29.338400 128.201920,32.610569 
	C159.533920,83.658073 191.010269,134.616974 222.459946,185.592239 
	C223.317551,186.982300 224.249008,188.326797 225.361465,190.020538 
	C239.396332,167.266495 253.184982,144.913391 266.971893,122.559189 
	C285.574310,92.397041 304.135254,62.209034 322.880188,32.135700 
	C323.966156,30.393410 326.533386,28.507896 328.424896,28.493595 
	C358.419952,28.266798 388.417267,28.333664 418.414062,28.345142 
	C419.228424,28.345453 420.042725,28.477158 421.241760,28.580862 
	C421.241760,45.898109 421.241760,63.100292 421.241760,80.746376 
	C415.073273,80.746376 409.317230,80.746376 403.130188,80.746376 
	C402.589294,154.923401 402.051636,228.659851 401.509979,302.945007 
	C407.737823,302.945007 413.649933,302.945007 419.897217,302.945007 
	C419.897217,319.542603 419.897217,335.595123 419.897217,351.948975 
	C387.599701,351.948975 355.551239,351.948975 323.333038,351.948975 
	C323.333038,327.729279 323.333038,303.617188 323.333069,279.006531 
z"/>
</svg>